<svg width="34" height="34" viewBox="0 0 34 34" fill="none" xmlns="http://www.w3.org/2000/svg">
<path d="M2.125 11.6875C2.68859 11.6875 3.22909 11.4636 3.6276 11.0651C4.02612 10.6666 4.25 10.1261 4.25 9.5625V6.375C4.25 5.81141 4.47388 5.27091 4.8724 4.8724C5.27091 4.47388 5.81141 4.25 6.375 4.25H9.5625C10.1261 4.25 10.6666 4.02612 11.0651 3.6276C11.4636 3.22909 11.6875 2.68859 11.6875 2.125C11.6875 1.56141 11.4636 1.02091 11.0651 0.622398C10.6666 0.223884 10.1261 0 9.5625 0H6.375C4.68425 0 3.06274 0.67165 1.86719 1.86719C0.67165 3.06274 0 4.68425 0 6.375V9.5625C0 10.1261 0.223884 10.6666 0.622398 11.0651C1.02091 11.4636 1.56141 11.6875 2.125 11.6875Z" fill="#C5D9F9"/>
<path d="M24.4375 34H27.625C29.3158 34 30.9373 33.3284 32.1328 32.1328C33.3284 30.9373 34 29.3158 34 27.625V24.4375C34 23.8739 33.7761 23.3334 33.3776 22.9349C32.9791 22.5364 32.4386 22.3125 31.875 22.3125C31.3114 22.3125 30.7709 22.5364 30.3724 22.9349C29.9739 23.3334 29.75 23.8739 29.75 24.4375V27.625C29.75 28.1886 29.5261 28.7291 29.1276 29.1276C28.7291 29.5261 28.1886 29.75 27.625 29.75H24.4375C23.8739 29.75 23.3334 29.9739 22.9349 30.3724C22.5364 30.7709 22.3125 31.3114 22.3125 31.875C22.3125 32.4386 22.5364 32.9791 22.9349 33.3776C23.3334 33.7761 23.8739 34 24.4375 34Z" fill="#C5D9F9"/>
<path d="M32.9375 10.625C32.9375 9.36925 32.6902 8.12578 32.2096 6.9656C31.7291 5.80543 31.0247 4.75127 30.1367 3.86331C29.2488 2.97534 28.1946 2.27098 27.0344 1.79042C25.8743 1.30986 24.6308 1.06251 23.375 1.06251C22.6772 1.06092 21.9859 1.19766 21.3412 1.46483C20.6966 1.73201 20.1112 2.12431 19.6191 2.61908L2.61908 19.6191C2.12408 20.111 1.73162 20.6963 1.46443 21.3411C1.19724 21.9858 1.06063 22.6771 1.06252 23.375V27.625C1.06252 29.034 1.62223 30.3852 2.61851 31.3815C3.6148 32.3778 4.96606 32.9375 6.37502 32.9375H10.625C11.3229 32.9391 12.0141 32.8024 12.6588 32.5352C13.3035 32.268 13.8888 31.8757 14.381 31.381L31.381 14.381C31.876 13.889 32.2684 13.3037 32.5356 12.659C32.8028 12.0142 32.9394 11.3229 32.9375 10.625ZM28.3794 11.3741L11.3794 28.3741C11.2806 28.4735 11.163 28.5524 11.0335 28.6062C10.9041 28.66 10.7652 28.6876 10.625 28.6875H6.37502C6.09323 28.6875 5.82298 28.5756 5.62372 28.3763C5.42446 28.1771 5.31252 27.9068 5.31252 27.625V23.375C5.31371 23.0937 5.42643 22.8243 5.62596 22.626L22.626 5.62595C22.8243 5.42642 23.0937 5.3137 23.375 5.31251C24.784 5.31251 26.1352 5.87222 27.1315 6.86851C28.1278 7.8648 28.6875 9.21605 28.6875 10.625C28.6863 10.9064 28.5736 11.1757 28.3741 11.3741H28.3794Z" fill="#C5D9F9"/>
</svg>
