<svg width="105" height="48" viewBox="0 0 105 48" fill="none" xmlns="http://www.w3.org/2000/svg">
<path d="M0 23.9402C0 17.6722 4.80351 12.5294 10.9198 12.0128C11.4785 11.9656 11.9346 12.4255 11.9346 12.9871V34.8933C11.9346 35.455 11.4785 35.9148 10.9198 35.8676C4.80352 35.3511 1.20766e-05 30.2083 0 23.9402Z" fill="#5266EA"/>
<path d="M23.7497 48C17.4998 48 12.372 43.1816 11.8576 37.0465C11.8106 36.4868 12.2697 36.0299 12.8303 36.0299H34.6691C35.2298 36.0299 35.6888 36.4868 35.6419 37.0465C35.1274 43.1816 29.9996 48 23.7497 48Z" fill="#5266EA"/>
<path d="M23.7497 0.119774C17.4998 0.119774 12.372 4.93818 11.8575 11.0733C11.8106 11.633 12.2696 12.0899 12.8303 12.0899H34.6691C35.2298 12.0899 35.6888 11.633 35.6419 11.0733C35.1274 4.93818 29.9996 0.119778 23.7497 0.119774Z" fill="#5266EA"/>
<path d="M0.119318 4.30923C0.119318 1.93222 2.04291 0 4.41578 0C6.78864 0 8.71224 1.93222 8.71224 4.30923C8.71224 6.68624 6.78864 8.61846 4.41578 8.61846C2.04291 8.61846 0.119318 6.68624 0.119318 4.30923Z" fill="#5266EA"/>
<path d="M28.3349 36.0304C29.1114 39.4814 29.642 42.9365 29.9425 46.2649C28.1371 47.3662 26.0172 48.0005 23.7497 48.0005C17.4998 48.0005 12.372 43.1821 11.8576 37.047C11.8107 36.4874 12.2696 36.0304 12.8303 36.0304H28.3349Z" fill="#639AFF"/>
<path d="M10.9198 12.0133C11.4785 11.9661 11.9347 12.426 11.9347 12.9877V34.8938C11.9346 35.4555 11.4785 35.9153 10.9198 35.8681C4.80353 35.3516 2.1108e-05 30.2088 0 23.9408C0 17.6727 4.80351 12.5299 10.9198 12.0133Z" fill="#639AFF"/>
<path d="M12.8038 7.31251C14.5057 8.72504 16.0716 10.3312 17.5062 12.0904H12.8303C12.2696 12.0904 11.8106 11.6335 11.8575 11.0738C11.9688 9.74659 12.296 8.48102 12.8038 7.31251Z" fill="#639AFF"/>
<path d="M1.13256 1.53125C3.86985 2.12913 6.39255 3.12927 8.70959 4.4593C8.63093 6.76727 6.73867 8.61895 4.41577 8.61895C2.0429 8.61895 0.119313 6.68674 0.119313 4.30973C0.119315 3.25174 0.500392 2.28185 1.13256 1.53125Z" fill="#639AFF"/>
<path d="M9.28831 12.2658C11.0883 18.6192 8.15626 25.2765 2.81032 31.6567C1.05687 29.5731 5.66461e-06 26.8806 0 23.9406C9.08987e-06 18.2418 3.97055 13.4732 9.28831 12.2658Z" fill="#6AB6FF"/>
<path d="M1.00685 1.6875C3.67932 3.62108 5.67946 5.62548 7.0928 7.67925C6.35851 8.26707 5.42805 8.61879 4.41577 8.61879C2.0429 8.61878 0.119314 6.68658 0.119313 4.30957C0.119313 3.32366 0.450204 2.41424 1.00685 1.6875Z" fill="#6AB6FF"/>
<path d="M23.7498 0.119141C29.9997 0.119146 35.1276 4.93757 35.642 11.0726C35.673 11.4429 35.4826 11.7681 35.1879 11.9458C29.466 10.2514 23.6051 5.21303 22.3489 2.41274L21.6807 0.298447C22.3527 0.180623 23.0441 0.119141 23.7498 0.119141Z" fill="#5878F1"/>
<path d="M12.4558 36.1016C18.0379 37.3628 23.9413 41.2975 29.6297 46.4486C27.8942 47.4361 25.8876 48 23.7497 48C17.4998 48 12.372 43.1816 11.8576 37.0465C11.8217 36.6188 12.0812 36.2512 12.4558 36.1016Z" fill="#6AB6FF"/>
<path d="M18.9175 29.8523V18.499H23.8095C24.6506 18.499 25.3867 18.6653 26.0175 18.9979C26.6484 19.3305 27.1391 19.798 27.4896 20.4004C27.84 21.0028 28.0153 21.7069 28.0153 22.5125C28.0153 23.3256 27.8345 24.0296 27.473 24.6247C27.1151 25.2197 26.6115 25.6779 25.9622 25.9995C25.3166 26.321 24.5621 26.4818 23.6988 26.4818H20.7769V24.0869H23.079C23.4406 24.0869 23.7486 24.0241 24.0032 23.8984C24.2614 23.7691 24.4588 23.5862 24.5953 23.3496C24.7355 23.1131 24.8056 22.8341 24.8056 22.5125C24.8056 22.1873 24.7355 21.9101 24.5953 21.681C24.4588 21.4482 24.2614 21.2708 24.0032 21.1488C23.7486 21.0232 23.4406 20.9603 23.079 20.9603H21.9944V29.8523H18.9175Z" fill="#5266EA"/>
<path d="M33.3491 29.8523H28.9884V18.499H33.3048C34.4707 18.499 35.4778 18.7263 36.3264 19.1808C37.1786 19.6317 37.8353 20.2822 38.2965 21.1322C38.7613 21.9785 38.9937 22.993 38.9937 24.1756C38.9937 25.3583 38.7631 26.3746 38.302 27.2246C37.8408 28.0709 37.1878 28.7214 36.343 29.176C35.4981 29.6268 34.5002 29.8523 33.3491 29.8523ZM32.0652 27.2357H33.2384C33.7992 27.2357 34.277 27.1451 34.6717 26.9641C35.0702 26.783 35.3727 26.4707 35.5793 26.0272C35.7896 25.5837 35.8947 24.9665 35.8947 24.1756C35.8947 23.3847 35.7877 22.7675 35.5738 22.3241C35.3635 21.8806 35.0536 21.5683 34.6441 21.3872C34.2382 21.2061 33.7402 21.1156 33.1499 21.1156H32.0652V27.2357Z" fill="#5266EA"/>
<path d="M40.2615 29.8523V18.499H48.2304V20.9825H43.3384V22.9339H47.7434V25.4174H43.3384V29.8523H40.2615Z" fill="#5266EA"/>
<path d="M55.3157 22.0469C55.2862 21.6773 55.1478 21.389 54.9007 21.1821C54.6572 20.9751 54.2864 20.8716 53.7883 20.8716C53.4711 20.8716 53.211 20.9104 53.008 20.988C52.8088 21.062 52.6613 21.1636 52.5653 21.2929C52.4694 21.4223 52.4196 21.5701 52.4159 21.7364C52.4085 21.8732 52.4325 21.997 52.4879 22.1079C52.5469 22.215 52.6391 22.313 52.7646 22.4017C52.89 22.4867 53.0505 22.5643 53.246 22.6345C53.4415 22.7047 53.674 22.7675 53.9433 22.823L54.873 23.0226C55.5002 23.1556 56.037 23.3311 56.4834 23.5492C56.9298 23.7672 57.295 24.0241 57.5791 24.3198C57.8632 24.6117 58.0716 24.9406 58.2044 25.3065C58.3409 25.6724 58.411 26.0715 58.4147 26.5039C58.411 27.2505 58.2247 27.8824 57.8558 28.3998C57.4868 28.9173 56.9593 29.3108 56.2731 29.5806C55.5905 29.8504 54.7697 29.9853 53.8105 29.9853C52.8254 29.9853 51.9658 29.8393 51.2317 29.5474C50.5012 29.2554 49.933 28.8064 49.5272 28.2003C49.1251 27.5905 48.9222 26.8107 48.9185 25.8609H51.8404C51.8588 26.2083 51.9455 26.5002 52.1005 26.7368C52.2554 26.9733 52.4731 27.1525 52.7535 27.2745C53.0376 27.3965 53.3751 27.4574 53.7662 27.4574C54.0945 27.4574 54.3694 27.4168 54.5908 27.3355C54.8121 27.2542 54.98 27.1415 55.0943 26.9973C55.2087 26.8532 55.2677 26.6887 55.2714 26.5039C55.2677 26.3302 55.2106 26.1787 55.0999 26.0494C54.9929 25.9163 54.8158 25.798 54.5686 25.6946C54.3214 25.5874 53.9876 25.4876 53.567 25.3952L52.438 25.1513C51.4346 24.9332 50.6432 24.5692 50.064 24.0592C49.4885 23.5455 49.2025 22.8452 49.2062 21.9582C49.2025 21.2375 49.3944 20.6074 49.7818 20.0678C50.1728 19.5245 50.7133 19.1014 51.4032 18.7983C52.0968 18.4953 52.8918 18.3438 53.7883 18.3438C54.7033 18.3438 55.4946 18.4971 56.1624 18.8039C56.8302 19.1106 57.3448 19.543 57.7064 20.1011C58.0716 20.6554 58.2561 21.304 58.2598 22.0469H55.3157Z" fill="#43446C"/>
<path d="M59.1194 20.9825V18.499H68.9698V20.9825H65.5609V29.8523H62.5283V20.9825H59.1194Z" fill="#43446C"/>
<path d="M80.4186 24.1756C80.4186 25.4396 80.1733 26.5058 79.6826 27.3743C79.192 28.2391 78.5297 28.8951 77.696 29.3423C76.8622 29.7857 75.9325 30.0075 74.9068 30.0075C73.8738 30.0075 72.9405 29.7839 72.1067 29.3367C71.2766 28.8858 70.6162 28.228 70.1255 27.3632C69.6385 26.4947 69.395 25.4322 69.395 24.1756C69.395 22.9117 69.6385 21.8473 70.1255 20.9825C70.6162 20.114 71.2766 19.458 72.1067 19.0145C72.9405 18.5673 73.8738 18.3438 74.9068 18.3438C75.9325 18.3438 76.8622 18.5673 77.696 19.0145C78.5297 19.458 79.192 20.114 79.6826 20.9825C80.1733 21.8473 80.4186 22.9117 80.4186 24.1756ZM77.2532 24.1756C77.2532 23.4956 77.1628 22.9228 76.9821 22.4571C76.805 21.9877 76.5412 21.633 76.1907 21.3927C75.8439 21.1488 75.416 21.0269 74.9068 21.0269C74.3977 21.0269 73.9679 21.1488 73.6174 21.3927C73.2706 21.633 73.0069 21.9877 72.8261 22.4571C72.649 22.9228 72.5605 23.4956 72.5605 24.1756C72.5605 24.8556 72.649 25.4303 72.8261 25.8997C73.0069 26.3653 73.2706 26.7201 73.6174 26.9641C73.9679 27.2043 74.3977 27.3244 74.9068 27.3244C75.416 27.3244 75.8439 27.2043 76.1907 26.9641C76.5412 26.7201 76.805 26.3653 76.9821 25.8997C77.1628 25.4303 77.2532 24.8556 77.2532 24.1756Z" fill="#43446C"/>
<path d="M81.6864 29.8523V18.499H86.5784C87.4196 18.499 88.1556 18.6523 88.7865 18.9591C89.4173 19.2658 89.908 19.7075 90.2585 20.284C90.609 20.8605 90.7842 21.5516 90.7842 22.3573C90.7842 23.1704 90.6034 23.8559 90.2419 24.414C89.884 24.9721 89.3804 25.3934 88.7311 25.6779C88.0855 25.9625 87.331 26.1048 86.4677 26.1048H83.5458V23.71H85.8479C86.2095 23.71 86.5175 23.6656 86.7721 23.5769C87.0304 23.4845 87.2277 23.3385 87.3642 23.139C87.5044 22.9394 87.5745 22.6788 87.5745 22.3573C87.5745 22.0321 87.5044 21.7679 87.3642 21.5646C87.2277 21.3576 87.0304 21.2061 86.7721 21.11C86.5175 21.0102 86.2095 20.9603 85.8479 20.9603H84.7633V29.8523H81.6864ZM88.3271 24.6413L91.1605 29.8523H87.818L85.051 24.6413H88.3271Z" fill="#43446C"/>
<path d="M91.9399 18.499H95.7694L98.4036 24.9296H98.5364L101.171 18.499H105V29.8523H101.99V23.2886H101.901L99.3775 29.7636H97.5624L95.0389 23.2443H94.9504V29.8523H91.9399V18.499Z" fill="#43446C"/>
</svg>
