<svg width="42" height="44" viewBox="0 0 42 44" fill="none" xmlns="http://www.w3.org/2000/svg">
<path fill-rule="evenodd" clip-rule="evenodd" d="M19.261 29.9085V35.9917C19.261 36.8311 19.9423 37.5125 20.7818 37.5125C21.6212 37.5125 22.3025 36.8311 22.3025 35.9917V29.9085C22.3025 29.069 21.6212 28.3877 20.7818 28.3877C19.9423 28.3877 19.261 29.069 19.261 29.9085Z" fill="#C5D9F9"/>
<path fill-rule="evenodd" clip-rule="evenodd" d="M17.7412 34.4723H23.8243C24.6638 34.4723 25.3451 33.7909 25.3451 32.9515C25.3451 32.112 24.6638 31.4307 23.8243 31.4307H17.7412C16.9018 31.4307 16.2205 32.112 16.2205 32.9515C16.2205 33.7909 16.9018 34.4723 17.7412 34.4723Z" fill="#C5D9F9"/>
<path fill-rule="evenodd" clip-rule="evenodd" d="M18.7266 9.60201C18.7266 10.7375 19.6492 11.6581 20.7826 11.6581C21.9181 11.6581 22.8387 10.7375 22.8387 9.60201C22.8387 8.46649 21.9181 7.5459 20.7826 7.5459C19.6492 7.5459 18.7266 8.46649 18.7266 9.60201Z" fill="#C5D9F9"/>
<path fill-rule="evenodd" clip-rule="evenodd" d="M20.7822 0C16.0232 0 12.1646 3.85876 12.1646 8.61784C12.1646 16.0251 12.1646 27.571 12.1646 34.9783C12.1646 39.7374 16.0232 43.5961 20.7822 43.5961C25.5433 43.5961 29.3999 39.7374 29.3999 34.9783C29.3999 27.571 29.3999 16.0251 29.3999 8.61784C29.3999 3.85876 25.5433 0 20.7822 0ZM20.7822 3.04159C23.8623 3.04159 26.3584 5.53772 26.3584 8.61784V34.9783C26.3584 38.0584 23.8623 40.5545 20.7822 40.5545C17.7042 40.5545 15.2061 38.0584 15.2061 34.9783V8.61784C15.2061 5.53772 17.7042 3.04159 20.7822 3.04159Z" fill="#C5D9F9"/>
<path fill-rule="evenodd" clip-rule="evenodd" d="M13.9429 3.48661C13.9429 3.48661 6.16266 11.267 1.03868 16.3911C-0.346228 17.776 -0.346228 20.0227 1.03868 21.4077C2.84536 23.2144 5.29481 24.2302 7.8497 24.2302C10.4026 24.2302 12.854 23.2144 14.6587 21.4077C15.2528 20.8156 15.2528 19.8524 14.6587 19.2583C14.0666 18.6641 13.1034 18.6641 12.5093 19.2583C11.2724 20.4931 9.59757 21.1887 7.8497 21.1887C6.10183 21.1887 4.42493 20.4931 3.19006 19.2583C2.99135 19.0595 2.99135 18.7392 3.19006 18.5404L16.0943 5.636C16.6864 5.0439 16.6864 4.0787 16.0943 3.48661C15.5002 2.89248 14.537 2.89248 13.9429 3.48661Z" fill="#C5D9F9"/>
<path fill-rule="evenodd" clip-rule="evenodd" d="M27.9429 40.1078C27.9429 40.1078 37.5582 30.4923 40.9607 27.0898C42.157 25.8934 42.3415 24.0198 41.4047 22.6126L40.9891 21.988C40.2632 20.9032 39.0019 20.305 37.7042 20.4267C36.4045 20.5504 35.2791 21.3757 34.7701 22.5781C34.762 22.5964 34.7539 22.6166 34.7458 22.6369C34.4518 23.4237 34.0381 24.1942 33.2778 24.5004C32.783 24.6971 32.1706 24.6646 31.4042 24.4092C30.9581 24.2611 30.4694 24.328 30.0781 24.5876L27.0365 26.6153C26.339 27.0817 26.1504 28.0266 26.6148 28.7242C27.0811 29.4217 28.026 29.6123 28.7236 29.1459L31.1852 27.5055C32.4667 27.7975 33.5292 27.6758 34.4092 27.323C35.9442 26.7086 36.9783 25.3277 37.5805 23.742C37.6555 23.5839 37.8117 23.4723 37.9901 23.4561C38.1767 23.4379 38.3551 23.523 38.4585 23.6792L38.8742 24.2997C39.008 24.5004 38.9817 24.7681 38.8093 24.9384C35.4068 28.3409 25.7915 37.9584 25.7915 37.9584C25.1974 38.5505 25.1974 39.5157 25.7915 40.1078C26.3856 40.7019 27.3488 40.7019 27.9429 40.1078Z" fill="#C5D9F9"/>
</svg>
