<svg width="33" height="39" viewBox="0 0 33 39" fill="none" xmlns="http://www.w3.org/2000/svg">
<path d="M31.2989 7.309L16.9368 0.636063C16.5476 0.454646 16.0957 0.454646 15.7065 0.636063L1.34443 7.309C0.829853 7.54979 0.5 8.06436 0.5 8.635V25.25C0.5 25.5996 0.625348 25.9394 0.856248 26.2066C4.8607 30.8345 9.67631 34.7893 15.5746 38.2988C15.8056 38.434 16.0661 38.5 16.3234 38.5C16.5807 38.5 16.8413 38.434 17.0689 38.2955C22.97 34.7892 27.783 30.8309 31.7873 26.2033C32.0149 25.9394 32.1435 25.5996 32.1435 25.2467V8.63508C32.1435 8.06773 31.8134 7.54974 31.2989 7.309ZM29.2241 24.6992C25.6683 28.7201 21.4395 32.2067 16.3238 35.3339C11.2077 32.2069 6.97931 28.717 3.42341 24.6992V9.56531L16.3238 3.5718L29.2241 9.56531V24.6992ZM15.0765 20.9619L22.3466 13.2697C22.9007 12.6825 23.8243 12.6561 24.4114 13.2136C24.9986 13.7677 25.025 14.6946 24.4675 15.2785L16.2212 24.0031C15.9342 24.3066 15.5483 24.4583 15.159 24.4583C14.8127 24.4583 14.463 24.3363 14.186 24.0856L8.25854 18.7815C7.6582 18.2439 7.60542 17.3202 8.14309 16.7199C8.68075 16.1196 9.60437 16.0668 10.2047 16.6045L15.0765 20.9619Z" fill="#C5D9F9" stroke="#C5D9F9"/>
</svg>
