<svg width="38" height="35" viewBox="0 0 38 35" fill="none" xmlns="http://www.w3.org/2000/svg">
<path d="M22.262 1C26.3318 1 30.0169 2.63707 32.6833 5.282C35.3511 7.92836 37 11.5826 37 15.6197C37 19.6568 35.3497 23.3123 32.6833 25.9573C30.0156 28.6037 26.3303 30.2393 22.262 30.2393C18.1922 30.2393 14.5071 28.6023 11.8407 25.9573C9.17291 23.311 7.52402 19.6568 7.52402 15.6197C7.52402 11.5826 9.17434 7.92701 11.8407 5.282C14.5084 2.63565 18.1922 1 22.262 1ZM21.4182 7.51557C21.4182 7.05293 21.7956 6.67852 22.262 6.67852C22.7284 6.67852 23.1058 7.0529 23.1058 7.51557V14.5308L28.5132 13.093C28.9624 12.9734 29.4245 13.2382 29.545 13.6838C29.6656 14.1293 29.3987 14.5877 28.9495 14.7073L22.5289 16.4141C22.4456 16.4412 22.3567 16.4554 22.2648 16.4554C21.7984 16.4554 21.421 16.081 21.421 15.6184V7.51425L21.4182 7.51557ZM12.4748 32.4416C12.8766 32.6722 13.0144 33.1833 12.7819 33.5832C12.5494 33.9819 12.0342 34.1185 11.631 33.8879C8.40066 32.0345 5.7056 29.3581 3.83713 26.1482C2.03324 23.0477 1 19.4533 1 15.6225C1 15.1599 1.3774 14.7854 1.84382 14.7854C2.31024 14.7854 2.68765 15.1598 2.68765 15.6225C2.68765 19.1571 3.63621 22.4668 5.29373 25.317C7.01151 28.2694 9.4943 30.7334 12.4748 32.4433L12.4748 32.4416ZM31.4909 6.46639C29.1288 4.12324 25.8656 2.67417 22.262 2.67417C18.6585 2.67417 15.3954 4.12335 13.0332 6.46639C10.6711 8.80954 9.21031 12.0465 9.21031 15.6211C9.21031 19.1958 10.6712 22.4326 13.0332 24.7759C15.3953 27.119 18.6585 28.5681 22.262 28.5681C25.8656 28.5681 29.1287 27.1189 31.4909 24.7759C33.853 22.4327 35.3138 19.1958 35.3138 15.6211C35.3138 12.0465 33.8529 8.80965 31.4909 6.46639Z" fill="#C5D9F9" stroke="#C5D9F9" stroke-width="2"/>
</svg>
