<svg width="24" height="24" class="hidden">
  <symbol fill="currentColor" xmlns="http://www.w3.org/2000/svg" viewBox="0 0 83 71" id="arrow-right">
    <path d="M41.1456 55.13C37.6034 58.7045 37.6276 64.4572 41.1779 68.0076L41.2101 68.0398C44.7927 71.5901 50.5699 71.5577 54.12 67.9754L80.0606 41.7604C83.5865 38.2022 83.5868 32.4734 80.0606 28.915L54.1119 2.70808L54.0796 2.67581C50.5293 -0.874498 44.7765 -0.89866 41.202 2.64359C37.6195 6.19386 37.5873 11.9709 41.1376 15.5534L51.6913 26.204L9.12564 26.204C4.0745 26.204 -5.83278e-05 30.2785 -5.64312e-05 35.3297C-5.8117e-05 37.8471 1.02475 40.1306 2.67865 41.7845C4.33272 43.4386 6.61624 44.4634 9.13349 44.4632L51.6992 44.4632L41.1456 55.13Z" fill="currentColor"></path>
  </symbol>
  <symbol fill="currentColor" xmlns="http://www.w3.org/2000/svg" viewBox="0 0 84 96" id="doc">
    <path d="M20.0667 39H62.7333C63.3208 39 63.8 39.5875 63.8 40.0667V44.3333C63.8 44.9208 63.3208 45.4 62.7333 45.4H20.0667C19.4792 45.4 19 44.8125 19 44.3333V40.0667C19 39.4792 19.4792 39 20.0667 39Z" fill="currentColor"></path>
    <path d="M20.2678 51.2002H62.9345C63.522 51.2002 64.0012 51.7877 64.0012 52.2669V56.5335C64.0012 57.121 63.522 57.6002 62.9345 57.6002H20.2678C19.6803 57.6002 19.2012 57.0127 19.2012 56.5335V52.2669C19.2012 51.6794 19.6803 51.2002 20.2678 51.2002Z" fill="currentColor"></path>
    <path d="M20.2678 64H50.1345C50.722 64 51.2012 64.5875 51.2012 65.0667V69.3333C51.2012 69.9208 50.722 70.4 50.1345 70.4H20.2678C19.6803 70.4 19.2012 69.8125 19.2012 69.3333V65.0667C19.2012 64.4792 19.6803 64 20.2678 64Z" fill="currentColor"></path>
    <path d="M79.0627 18.8127L64.3875 4.13749C61.95 1.69995 57.8459 0 54.4 0H9.6C4.30421 0 0 4.30421 0 9.6V86.4C0 91.6958 4.30421 96 9.6 96H73.6C78.8958 96 83.2 91.6958 83.2 86.4V28.8C83.2 25.3541 81.5002 21.2502 79.0627 18.8127ZM74.5377 23.3377C75.1002 23.9002 75.6127 24.7169 76.0085 25.6002H61.3333C59.5709 25.6002 58.1333 24.1627 58.1333 22.4002V7.44555C58.8083 7.79554 59.4125 8.21638 59.8625 8.66219L74.5377 23.3377ZM73.6002 89.6001H9.6002C7.84191 89.6001 6.4002 88.1584 6.4002 86.4001V9.60011C6.4002 7.84181 7.84191 6.40011 9.6002 6.40011H51.7335V22.4001C51.7335 27.6917 56.0419 32.0001 61.3335 32.0001H76.8002V86.4001C76.8002 88.1584 75.3585 89.6001 73.6002 89.6001Z" fill="currentColor"></path>
  </symbol>
  <symbol fill="currentColor" xmlns="http://www.w3.org/2000/svg" viewBox="0 0 96 86" id="ebook">
    <path fill-rule="evenodd" clip-rule="evenodd" d="M17.3849 0C28.0222 0 38.0299 3.43429 46.3232 9.93171L48.0157 11.2629L49.7082 9.93171L49.7073 9.93081C58.0172 3.43255 68.0099 0 78.6465 0H86.0817C91.318 0 95.6118 4.04228 96 9.14217V66.697C96 72.1463 91.5418 76.5919 86.0503 76.5919H78.6142C70.8195 76.592 63.2971 78.8343 56.7943 83.0951L56.1679 83.5137C51.4623 86.7253 45.1015 86.8255 40.2925 83.8146L39.8321 83.5137C33.203 78.9803 25.4302 76.5919 17.3849 76.5919H9.94973C4.45816 76.5919 0 72.1463 0 66.697V9.89488C0.00011481 4.4457 4.45823 0 9.94973 0H17.3849ZM9.98114 7.16786C8.48099 7.16786 7.2468 8.38602 7.24669 9.89488V66.697C7.24669 68.206 8.48092 69.425 9.98114 69.425H17.4172C25.4505 69.425 33.3907 71.4884 40.3526 75.3838L44.4242 77.6689V17.7211L43.4936 16.9038L43.4891 16.9002C36.2721 10.6279 27.0154 7.16796 17.4172 7.16786H9.98114ZM78.6465 7.16786C69.0481 7.16786 59.7908 10.6277 52.5737 16.9002L52.5692 16.9047L52.0299 17.3771L51.6395 17.7211V77.6689L55.7102 75.3838L55.7111 75.3847C62.6732 71.4893 70.5975 69.425 78.6465 69.425H86.0817C87.5819 69.425 88.8161 68.206 88.8161 66.697V9.89488C88.816 8.38602 87.5818 7.16786 86.0817 7.16786H78.6465Z" fill="currentColor"></path>
  </symbol>
  <symbol fill="currentColor" xmlns="http://www.w3.org/2000/svg" viewBox="0 0 80 101" id="file-exel">
    <path d="M51.0234 0.25C52.6939 0.250072 54.3288 0.898975 55.5264 2.125L77.4785 24.5996C78.6321 25.7806 79.3213 27.3767 79.3213 29.0713V91.5713C79.3213 96.6249 75.1962 100.75 70.1426 100.75H9.42871C4.3751 100.75 0.25 96.6249 0.25 91.5713V9.42871L0.261719 8.95801C0.508244 4.12139 4.53289 0.25 9.42871 0.25H51.0234ZM9.42871 4.32129C6.56804 4.32129 4.32129 6.56803 4.32129 9.42871V91.5713C4.32129 94.432 6.56804 96.6787 9.42871 96.6787H70.1426C73.0033 96.6787 75.25 94.432 75.25 91.5713V29.3213H57.6426C53.5784 29.3211 50.2501 25.9929 50.25 21.9287V4.32129H9.42871ZM61.2139 39.5361C63.2996 39.5361 65.0361 41.2717 65.0361 43.3574V82.6426C65.0361 84.7283 63.2996 86.4639 61.2139 86.4639H18.3574C16.2717 86.4639 14.5361 84.7283 14.5361 82.6426V43.3574C14.5361 41.2717 16.2717 39.5361 18.3574 39.5361H61.2139ZM32.8926 82.3926H60.9639V72.1787H32.8926V82.3926ZM18.6074 82.3926H28.8213V72.1787H18.6074V82.3926ZM32.8926 68.1074H60.9639V57.8926H32.8926V68.1074ZM18.6074 68.1074H28.8213V57.8926H18.6074V68.1074ZM32.8926 53.8213H60.9639V43.6074H32.8926V53.8213ZM18.6074 53.8213H28.8213V43.6074H18.6074V53.8213ZM54.3213 21.9287C54.3214 23.7999 55.7714 25.2499 57.6426 25.25H72.4229L54.3213 6.71777V21.9287Z" fill="currentColor" stroke="currentColor" stroke-width="0.5"></path>
  </symbol>
  <symbol fill="currentColor" xmlns="http://www.w3.org/2000/svg" viewBox="0 0 84 96" id="other-tools">
    <path d="M40.0879 0.517216C41.2659 -0.172405 42.7341 -0.172405 43.9121 0.517216C50.9046 4.56395 75.0954 18.5593 82.0879 22.6061C83.2659 23.2959 84 24.5534 84 25.9176V70.0817C84 71.4459 83.2659 72.7187 82.0879 73.3932C75.0954 77.4399 50.9046 91.4353 43.9121 95.4821C42.7341 96.1717 41.2659 96.1717 40.0879 95.4821C33.0954 91.4353 8.90463 77.4399 1.91211 73.3932C0.734072 72.7034 0 71.4459 0 70.0817V25.9176C0 24.5534 0.734075 23.2806 1.91211 22.6061C8.90463 18.5593 33.0954 4.56395 40.0879 0.517216ZM24.7559 18.0533C18.1194 21.8933 11.4836 25.7335 7.5 28.0387V67.9596C11.4836 70.2648 18.1192 74.1058 24.7559 77.9459C31.3847 81.7815 38.0143 85.6171 42 87.9235C45.9857 85.6171 52.6153 81.7815 59.2441 77.9459C65.8808 74.1058 72.5164 70.2648 76.5 67.9596V28.0387C72.5164 25.7335 65.8806 21.8933 59.2441 18.0533C52.6151 14.2176 45.9856 10.3812 42 8.07483C38.0144 10.3812 31.3849 14.2176 24.7559 18.0533ZM42 27.86C53.1174 27.86 62.123 36.9035 62.123 48.0075C62.123 59.1113 53.1173 68.1539 42 68.1539C30.8827 68.1539 21.877 59.1113 21.877 48.0075C21.877 36.9034 30.8832 27.86 42 27.86ZM42 35.36C35.0384 35.36 29.377 41.0324 29.377 48.0075C29.377 54.9824 35.0381 60.6539 42 60.6539C48.9619 60.6539 54.623 54.9824 54.623 48.0075C54.623 41.0324 48.962 35.36 42 35.36Z" fill="currentColor"></path>
  </symbol>
  <symbol fill="currentColor" xmlns="http://www.w3.org/2000/svg" viewBox="0 0 84 96" id="pdf">
    <path d="M49.6777 52.582C51.2111 52.582 52.3566 53.0336 53.1143 53.9355C53.8898 54.8375 54.2773 56.2805 54.2773 58.2646C54.2773 60.4651 53.8898 62.0523 53.1143 63.0264C52.3566 64.0005 51.2111 64.4883 49.6777 64.4883C49.3351 64.4883 49.0014 64.4613 48.6768 64.4072C48.5325 64.3712 48.46 64.2716 48.46 64.1094V52.9336C48.4601 52.7895 48.5326 52.6991 48.6768 52.6631C49.0014 52.609 49.3351 52.582 49.6777 52.582Z" fill="currentColor"></path>
    <path d="M33.2725 52.4473C35.7077 52.4473 36.9258 53.394 36.9258 55.2881C36.9258 56.2802 36.6098 57.0467 35.9785 57.5879C35.3471 58.1291 34.445 58.3994 33.2725 58.3994C33.038 58.3994 32.7043 58.3818 32.2715 58.3457C32.1272 58.3096 32.0547 58.2195 32.0547 58.0752V52.8262C32.0547 52.6638 32.1272 52.5644 32.2715 52.5283C32.5961 52.4742 32.9298 52.4473 33.2725 52.4473Z" fill="currentColor"></path>
    <path fill-rule="evenodd" clip-rule="evenodd" d="M62.8828 39C68.4679 39 71.2608 38.9997 73.5059 39.7852C77.5273 41.1923 80.6895 44.3546 82.0967 48.376C82.8823 50.6212 82.8828 53.4143 82.8828 59C82.8828 64.5857 82.8823 67.3789 82.0967 69.624C80.6895 73.6454 77.5273 76.8067 73.5059 78.2139C71.2608 78.9994 68.4681 79 62.8828 79H37C31.4143 79 28.6212 78.9995 26.376 78.2139C22.3547 76.8067 19.1923 73.6454 17.7852 69.624C16.9995 67.3789 17 64.5857 17 59C17 53.4143 16.9995 50.6212 17.7852 48.376C19.1923 44.3545 22.3545 41.1923 26.376 39.7852C28.6212 38.9995 31.4143 39 37 39H62.8828ZM49.1367 48.3877C47.7117 48.3877 46.2325 48.4602 44.6992 48.6045C44.2663 48.6406 43.9048 48.8301 43.6162 49.1729C43.3278 49.5154 43.1837 49.9032 43.1836 50.3359V66.7334C43.1836 67.1663 43.3277 67.5548 43.6162 67.8975C43.9048 68.2402 44.2663 68.4297 44.6992 68.4658C46.2325 68.6101 47.7117 68.6816 49.1367 68.6816C52.3657 68.6816 54.8816 67.7887 56.6855 66.0029C58.5075 64.2171 59.4189 61.6379 59.4189 58.2646C59.4189 55.1619 58.5168 52.7445 56.7129 51.0127C54.909 49.263 52.3836 48.3877 49.1367 48.3877ZM32.7314 48.3877C31.3064 48.3877 29.8272 48.4602 28.2939 48.6045C27.8611 48.6406 27.5005 48.8302 27.2119 49.1729C26.9234 49.5155 26.7784 49.9032 26.7783 50.3359V66.8691C26.7783 67.2839 26.9318 67.6446 27.2383 67.9512C27.5449 68.2578 27.9064 68.4111 28.3213 68.4111H30.5127C30.9276 68.4111 31.2881 68.2578 31.5947 67.9512C31.9014 67.6445 32.0547 67.284 32.0547 66.8691V62.4854C32.0548 62.3413 32.1366 62.2695 32.2988 62.2695C32.9118 62.3056 33.4167 62.3232 33.8135 62.3232C36.4651 62.3232 38.4767 61.71 39.8477 60.4834C41.2367 59.2387 41.9316 57.4168 41.9316 55.0176C41.9316 50.598 38.8648 48.3877 32.7314 48.3877ZM62.3457 48.6582C61.931 48.6582 61.5702 48.8117 61.2637 49.1182C60.957 49.4248 60.8037 49.7863 60.8037 50.2012V66.8691C60.8037 67.284 60.9571 67.6445 61.2637 67.9512C61.5703 68.2578 61.9309 68.4111 62.3457 68.4111H64.6729C65.0877 68.4111 65.4482 68.2578 65.7549 67.9512C66.0615 67.6445 66.2148 67.284 66.2148 66.8691V61.0781C66.215 60.9161 66.2968 60.835 66.459 60.835H71.4375C71.8523 60.835 72.2129 60.6815 72.5195 60.375C72.8261 60.0684 72.9804 59.7078 72.9805 59.293V58.3184C72.9804 57.9036 72.8261 57.5429 72.5195 57.2363C72.2129 56.9298 71.8523 56.7764 71.4375 56.7764H66.459C66.2968 56.7764 66.215 56.6952 66.2148 56.5332V53.2041C66.215 53.0601 66.2968 52.9883 66.459 52.9883H71.9785C72.3934 52.9883 72.7549 52.835 73.0615 52.5283C73.3682 52.2217 73.5215 51.8602 73.5215 51.4453V50.2012C73.5215 49.7863 73.3682 49.4248 73.0615 49.1182C72.7549 48.8115 72.3934 48.6582 71.9785 48.6582H62.3457Z" fill="currentColor"></path>
    <path fill-rule="evenodd" clip-rule="evenodd" d="M54.4004 0C57.8462 0.000127529 61.9502 1.70024 64.3877 4.1377L79.0625 18.8125C81.4999 21.25 83.2001 25.354 83.2002 28.7998V35.7998C83.2002 37.5672 81.7674 39 80 39C78.2326 39 76.7998 37.5672 76.7998 35.7998V32H61.334C56.0425 32 51.7336 27.6919 51.7334 22.4004V6.40039H9.60059C7.84229 6.40039 6.40039 7.84229 6.40039 9.60059V86.4004C6.40054 88.1586 7.84239 89.6006 9.60059 89.6006H73.6006C75.3586 89.6004 76.7997 88.1584 76.7998 86.4004V82.2002C76.7998 80.4328 78.2326 79 80 79C81.7674 79 83.2002 80.4328 83.2002 82.2002V86.4004C83.2 91.696 78.8953 96 73.5996 96H9.59961C4.30413 95.9998 0.000209204 91.6959 0 86.4004V9.59961C0.000211921 4.30413 4.30413 0.000212468 9.59961 0H54.4004ZM58.1338 22.4004C58.1339 24.1627 59.5708 25.6004 61.333 25.6006H76.0088C75.613 24.7174 75.1005 23.9004 74.5381 23.3379L59.8623 8.66211C59.4123 8.21642 58.8086 7.79524 58.1338 7.44531V22.4004Z" fill="currentColor"></path>
  </symbol>
  <symbol fill="currentColor" xmlns="http://www.w3.org/2000/svg" viewBox="0 0 86 52" id="pdf-file">
    <path d="M42.6557 17.6569C44.6573 17.6569 46.153 18.2434 47.142 19.4159C48.1545 20.5885 48.6607 22.4646 48.6607 25.0442C48.6607 27.9053 48.1545 29.969 47.142 31.2354C46.153 32.5017 44.6573 33.1347 42.6557 33.1347C42.2084 33.1347 41.7725 33.0996 41.3487 33.0293C41.1606 32.9823 41.0662 32.8533 41.0662 32.6425V18.1143C41.0662 17.9268 41.1606 17.8092 41.3487 17.7623C41.7725 17.6919 42.2084 17.6569 42.6557 17.6569Z" fill="currentColor"></path>
    <path d="M21.2413 17.4809C24.4202 17.4809 26.01 18.7126 26.01 21.175C26.01 22.4647 25.5971 23.4616 24.773 24.1651C23.9489 24.8685 22.7716 25.2202 21.2413 25.2202C20.9351 25.2202 20.4994 25.1966 19.9342 25.1497C19.7459 25.1027 19.6517 24.9852 19.6517 24.7977V17.974C19.6517 17.763 19.746 17.6341 19.9342 17.5872C20.3581 17.5168 20.7939 17.4809 21.2413 17.4809Z" fill="currentColor"></path>
    <path fill-rule="evenodd" clip-rule="evenodd" d="M60.9164 0C72.7408 0 78.6531 0.000211858 82.3265 3.6584C85.9999 7.31673 86 13.2046 86 24.9806V27.0194C86 38.7953 85.9999 44.6833 82.3265 48.3416C78.6531 51.9999 72.7409 52 60.9164 52H25.0836C13.2591 52 7.34688 51.9999 3.67348 48.3416C0.000217857 44.6833 0 38.7952 0 27.0194V24.9806C0 13.2047 7.26191e-05 7.31673 3.67348 3.6584C7.34689 7.2321e-05 13.2591 0 25.0836 0H60.9164ZM41.9497 12.2045C40.0895 12.2045 38.1581 12.2984 36.1565 12.486C35.5915 12.5329 35.1203 12.7793 34.7436 13.2248C34.367 13.6703 34.1785 14.1746 34.1785 14.7373V36.0543C34.1785 36.617 34.3671 37.1213 34.7436 37.5668C35.1203 38.0123 35.5915 38.2586 36.1565 38.3056C38.1581 38.4932 40.0895 38.587 41.9497 38.587C46.1647 38.587 49.4493 37.4262 51.804 35.1046C54.1823 32.783 55.3716 29.4296 55.3716 25.0442C55.3716 21.0108 54.1944 17.8685 51.8399 15.6173C49.4851 13.3425 46.1883 12.2046 41.9497 12.2045ZM20.5344 12.2045C18.6742 12.2046 16.7434 12.2984 14.742 12.486C14.1769 12.5329 13.7059 12.7792 13.3292 13.2248C12.9524 13.6703 12.764 14.1745 12.764 14.7373V36.2303C12.764 36.7696 12.964 37.2387 13.3641 37.6374C13.7644 38.0359 14.2356 38.2358 14.777 38.2359H17.6386C18.1801 38.2359 18.6513 38.036 19.0515 37.6374C19.4517 37.2387 19.6517 36.7696 19.6517 36.2303V30.5314C19.6518 30.3442 19.7577 30.2501 19.9692 30.25C20.7697 30.2969 21.4293 30.3205 21.9473 30.3206C25.4087 30.3206 28.0348 29.5236 29.8244 27.929C31.6376 26.3108 32.5443 23.942 32.5443 20.823C32.5443 15.0775 28.5406 12.2045 20.5344 12.2045ZM59.1921 12.5565C58.6505 12.5565 58.1795 12.7556 57.7792 13.1542C57.3789 13.5528 57.1791 14.022 57.1791 14.5613V36.2303C57.1791 36.7696 57.3789 37.2387 57.7792 37.6374C58.1795 38.036 58.6505 38.235 59.1921 38.235H62.2296C62.7711 38.235 63.2421 38.036 63.6424 37.6374C64.0427 37.2387 64.2435 36.7697 64.2435 36.2303V28.7026C64.2435 28.4916 64.3491 28.3855 64.561 28.3855H71.0602C71.6018 28.3855 72.0728 28.1865 72.4731 27.7878C72.8734 27.3892 73.0733 26.9201 73.0733 26.3807V25.1148C73.0733 24.5755 72.8733 24.1064 72.4731 23.7077C72.0728 23.3091 71.6018 23.1092 71.0602 23.1092H64.561C64.3491 23.1092 64.2435 23.0039 64.2435 22.7929V18.4663C64.2435 18.2787 64.3491 18.1848 64.561 18.1848H71.7663C72.3078 18.1848 72.7788 17.985 73.1791 17.5863C73.5794 17.1876 73.7802 16.7186 73.7802 16.1792V14.5613C73.7801 14.022 73.5794 13.5528 73.1791 13.1542C72.7789 12.7557 72.3077 12.5565 71.7663 12.5565H59.1921Z" fill="currentColor"></path>
  </symbol>
  <symbol fill="currentColor" xmlns="http://www.w3.org/2000/svg" viewBox="0 0 99 99" id="picture">
    <path fill-rule="evenodd" clip-rule="evenodd" d="M52.2793 18.9111C54.4547 18.0099 56.8487 17.7733 59.1582 18.2324C61.4677 18.6917 63.5897 19.8254 65.2549 21.4902C66.9201 23.1552 68.054 25.2774 68.5137 27.5869C68.9732 29.8964 68.7378 32.2902 67.8369 34.4658C66.936 36.6415 65.4099 38.502 63.4521 39.8105C61.4945 41.1188 59.1924 41.817 56.8379 41.8174H56.8359C53.6797 41.8144 50.653 40.5596 48.4209 38.3281C46.1886 36.0963 44.9331 33.0697 44.9297 29.9131L44.9375 29.4707C45.0188 27.2704 45.7093 25.1325 46.9355 23.2969C48.2437 21.3388 50.1038 19.8125 52.2793 18.9111ZM56.8369 24.8125C55.4853 24.8142 54.1892 25.3519 53.2334 26.3076C52.2772 27.2638 51.7395 28.5608 51.7383 29.9131C51.7388 30.9206 52.0378 31.9054 52.5977 32.7432C53.1579 33.5813 53.9543 34.2354 54.8857 34.6211C55.8171 35.0067 56.8424 35.1078 57.8311 34.9111C58.8198 34.7143 59.7286 34.2285 60.4414 33.5156C61.1542 32.8027 61.6402 31.894 61.8369 30.9053C62.0336 29.9166 61.9325 28.8914 61.5469 27.96C61.1612 27.0285 60.5071 26.2321 59.6689 25.6719C58.8309 25.1118 57.8449 24.8128 56.8369 24.8125Z" fill="currentColor"></path>
    <path fill-rule="evenodd" clip-rule="evenodd" d="M83.1523 0.00488281C87.1835 0.109376 91.0273 1.75679 93.8857 4.61523C96.8364 7.56588 98.4962 11.5664 98.501 15.7393V82.7607C98.4962 86.9336 96.8364 90.9341 93.8857 93.8848C90.9351 96.8354 86.9346 98.4952 82.7617 98.5H15.7393C11.5664 98.4952 7.56588 96.8354 4.61523 93.8848C1.66459 90.9341 0.00481182 86.9336 0 82.7607V15.7393L0.00488281 15.3486C0.109391 11.3174 1.75679 7.47368 4.61523 4.61523C7.56588 1.66459 11.5664 0.00481314 15.7393 0H82.7617L83.1523 0.00488281ZM12.2275 90.96C13.3321 91.4387 14.5276 91.6903 15.7422 91.6914H77.4766L44.8096 56.8682L12.2275 90.96ZM65.1504 68.5977L86.1436 90.9756C87.6536 90.3603 88.971 89.3405 89.9463 88.0215C91.0731 86.4975 91.6849 84.6541 91.6924 82.7588V70.1084L76.5381 56.6455L65.1504 68.5977ZM15.2998 6.82031C13.0924 6.93194 10.998 7.85748 9.42773 9.42773C7.75291 11.1026 6.81114 13.3736 6.80859 15.7422V82.7568L6.81445 83.0732C6.8539 84.1106 7.07654 85.1292 7.4668 86.084L42.3711 49.5645L42.373 49.5635C42.691 49.2317 43.0725 48.9675 43.4951 48.7871C43.9179 48.6067 44.3733 48.5136 44.833 48.5137H44.8486C45.3113 48.5156 45.7691 48.6112 46.1934 48.7959C46.6175 48.9806 46.9998 49.2496 47.3164 49.5869L60.4863 63.626L73.8779 49.5703C74.4858 48.9306 75.3184 48.5523 76.2002 48.5156C77.0821 48.479 77.9437 48.7867 78.6025 49.374L91.6924 61.0039V15.7422C91.6898 13.3736 90.7481 11.1026 89.0732 9.42773C87.503 7.85748 85.4086 6.93193 83.2012 6.82031L82.7588 6.80859H15.7422L15.2998 6.82031Z" fill="currentColor"></path>
  </symbol>
  <symbol fill="currentColor" xmlns="http://www.w3.org/2000/svg" viewBox="0 0 96 96" id="presentation">
    <path fill-rule="evenodd" clip-rule="evenodd" d="M45.2139 8.00505C46.8935 8.00505 48.2559 9.36639 48.2559 11.0461V44.7033C48.2559 44.8478 48.2666 44.9899 48.2861 45.1291C48.2879 45.1414 48.2891 45.1539 48.291 45.1662C48.3041 45.2518 48.3217 45.336 48.3418 45.4191C48.3448 45.4314 48.3465 45.444 48.3496 45.4562C48.3669 45.5241 48.3884 45.5904 48.4102 45.6564C48.428 45.7106 48.448 45.7638 48.4688 45.8166C48.484 45.8554 48.4998 45.8938 48.5166 45.9318C48.5371 45.9781 48.5593 46.0234 48.582 46.0685C48.6046 46.1134 48.6276 46.1578 48.6523 46.2013C48.6757 46.2425 48.7004 46.2825 48.7256 46.3224C48.7492 46.3599 48.7726 46.3974 48.7979 46.4338C48.8303 46.4805 48.8645 46.5257 48.8994 46.5705C48.9241 46.6021 48.9487 46.6336 48.9746 46.6642C49.0101 46.7062 49.0473 46.7464 49.085 46.7863C49.1131 46.8162 49.1406 46.8465 49.1699 46.8752C49.2073 46.9118 49.2469 46.946 49.2861 46.9806C49.32 47.0106 49.3534 47.0411 49.3887 47.0695C49.422 47.0964 49.4568 47.1212 49.4912 47.1467C49.5366 47.1802 49.5816 47.2142 49.6289 47.2453C49.655 47.2625 49.6823 47.2777 49.709 47.2941C49.7635 47.3276 49.8183 47.3607 49.875 47.3908C49.905 47.4067 49.9363 47.4198 49.9668 47.4347C50.0223 47.4618 50.0774 47.4901 50.1348 47.5138C50.1929 47.5379 50.2527 47.5578 50.3125 47.5783C50.3419 47.5884 50.3706 47.6004 50.4004 47.6095C50.4185 47.6151 50.4368 47.6199 50.4551 47.6252C50.5333 47.6477 50.6127 47.6675 50.6934 47.6838C50.7012 47.6853 50.709 47.6871 50.7168 47.6886C50.8066 47.706 50.8978 47.7194 50.9902 47.7287C50.9954 47.7292 51.0007 47.7292 51.0059 47.7297C51.1017 47.7388 51.1987 47.7443 51.2969 47.7443H84.9541C86.1092 47.7443 87.114 48.3886 87.6289 49.3371C87.7116 49.4893 87.7789 49.6501 87.835 49.8166C87.9375 50.1213 87.9961 50.447 87.9961 50.7863V52.0021C87.9961 76.2313 68.2271 96 43.998 96.0002L42.8652 95.9855C19.1556 95.381 0 75.8527 0 52.0021C0.000219309 29.0822 17.6905 10.1563 40.1123 8.17791C40.6533 8.13017 41.1968 8.08854 41.7432 8.06072C42.49 8.02269 43.242 8.00505 43.998 8.00505H45.2139ZM38.6797 17.9679C38.0604 17.4542 37.2309 17.2099 36.3574 17.4035L35.6152 17.5763C35.3701 17.6363 35.1259 17.6988 34.8828 17.7638C33.9973 18.0007 33.1258 18.273 32.2686 18.5754C32.1912 18.6027 32.1133 18.6286 32.0361 18.6564C31.6183 18.8071 31.2044 18.9663 30.7939 19.132C30.7495 19.15 30.7045 19.1666 30.6602 19.1847C30.5088 19.2466 30.3583 19.3103 30.208 19.3742C30.1262 19.4089 30.0444 19.4434 29.9629 19.4787C29.8436 19.5304 29.7251 19.5839 29.6064 19.6369C29.4963 19.6861 29.386 19.735 29.2764 19.7853C29.1805 19.8293 29.0856 19.8753 28.9902 19.9201C28.8598 19.9814 28.7291 20.0418 28.5996 20.1047C28.5255 20.1406 28.4518 20.1776 28.3779 20.214C28.2225 20.2908 28.0672 20.3675 27.9131 20.4465C27.8545 20.4765 27.7967 20.5079 27.7383 20.5383C27.5936 20.6133 27.4492 20.6888 27.3057 20.7658C27.2124 20.8158 27.1201 20.8673 27.0273 20.9181C26.8953 20.9905 26.7628 21.0619 26.6318 21.1359C26.559 21.177 26.4875 21.2203 26.415 21.2619C26.2735 21.3432 26.1316 21.4238 25.9912 21.507C25.8996 21.5613 25.8089 21.617 25.7178 21.672C25.6103 21.7371 25.5023 21.8012 25.3955 21.8674C25.2831 21.9369 25.1721 22.0085 25.0605 22.0793C24.9626 22.1415 24.8639 22.2027 24.7666 22.2658C24.6473 22.3431 24.5294 22.4224 24.4111 22.5011C24.3284 22.5562 24.2453 22.6105 24.1631 22.6662C24.0559 22.7388 23.9501 22.8132 23.8438 22.8869C23.7394 22.9593 23.6348 23.0312 23.5312 23.1047C23.4458 23.1653 23.3612 23.2269 23.2764 23.2883C23.1644 23.3692 23.0524 23.4502 22.9414 23.5324C22.8715 23.5841 22.8029 23.6374 22.7334 23.6896C22.6008 23.7893 22.4681 23.8889 22.3369 23.9904C22.2637 24.047 22.1909 24.1041 22.1182 24.1613C22.0162 24.2415 21.9146 24.3222 21.8135 24.4035C21.7085 24.4879 21.604 24.5728 21.5 24.6584C21.4154 24.728 21.331 24.798 21.2471 24.8683C21.1394 24.9585 21.0323 25.0494 20.9258 25.1408C20.8429 25.2119 20.7599 25.2828 20.6777 25.3547C20.5874 25.4336 20.4977 25.5131 20.4082 25.5929C20.3083 25.6821 20.2093 25.7722 20.1104 25.8625C20.0409 25.9258 19.9723 25.99 19.9033 26.0539C19.7972 26.1522 19.6908 26.2502 19.5859 26.3498C19.5115 26.4205 19.4381 26.4923 19.3643 26.5636C19.257 26.6673 19.1499 26.7712 19.0439 26.8761C18.9612 26.9581 18.8788 27.0405 18.7969 27.1232C18.7181 27.2027 18.6395 27.2823 18.5615 27.3625C18.4718 27.4548 18.3827 27.5476 18.2939 27.6408C18.2078 27.7314 18.1224 27.8227 18.0371 27.9142C17.9639 27.9928 17.8908 28.0714 17.8184 28.1506C17.727 28.2504 17.6361 28.3505 17.5459 28.4513C17.4615 28.5457 17.3783 28.6412 17.2949 28.7365C17.2192 28.8229 17.1432 28.9091 17.0684 28.9963C16.9883 29.0895 16.9092 29.1835 16.8301 29.2775C16.7553 29.3665 16.6804 29.4554 16.6064 29.5451C16.5239 29.6452 16.4418 29.7458 16.3604 29.8469C16.2812 29.9449 16.2031 30.0438 16.125 30.1427C16.0481 30.2402 15.9724 30.3385 15.8965 30.4367C15.8379 30.5125 15.7787 30.5879 15.7207 30.6642C15.6321 30.7809 15.5442 30.8981 15.457 31.0158C15.3845 31.1137 15.3127 31.2121 15.2412 31.3107C15.1713 31.4072 15.1012 31.5036 15.0322 31.6008C14.9819 31.6717 14.9326 31.7433 14.8828 31.8146C14.7906 31.9466 14.6989 32.0789 14.6084 32.2121C14.5445 32.3062 14.481 32.4005 14.418 32.4953C14.3478 32.6007 14.278 32.7064 14.209 32.8127C14.1461 32.9095 14.0845 33.0072 14.0225 33.1047C13.9482 33.2214 13.8747 33.3386 13.8018 33.4562C13.7498 33.5401 13.6978 33.6239 13.6465 33.7082C13.5781 33.8207 13.5106 33.9338 13.4434 34.047C13.3829 34.1489 13.3231 34.2512 13.2637 34.3537C13.1953 34.4716 13.1266 34.5894 13.0596 34.7082C13.0092 34.7974 12.9597 34.8871 12.9102 34.9767C12.8389 35.1056 12.7679 35.2346 12.6982 35.3644C12.6423 35.4687 12.5882 35.574 12.5332 35.6789C12.485 35.7709 12.4361 35.8627 12.3887 35.9552C12.321 36.0872 12.2545 36.2198 12.1885 36.3527C12.1379 36.4545 12.0868 36.556 12.0371 36.6584C11.9907 36.7541 11.945 36.8503 11.8994 36.9465C11.8386 37.0749 11.7791 37.204 11.7197 37.3332C11.6829 37.4134 11.6466 37.4939 11.6104 37.5744C11.545 37.7196 11.4795 37.8647 11.416 38.0109C11.3649 38.1286 11.3155 38.2471 11.2656 38.3654C11.2254 38.461 11.1849 38.5565 11.1455 38.6525C11.0853 38.7991 11.027 38.9464 10.9688 39.0939C10.9377 39.1724 10.9055 39.2505 10.875 39.3293C10.822 39.4664 10.7711 39.6044 10.7197 39.7424C10.6781 39.8543 10.6353 39.9659 10.5947 40.0783C10.5555 40.1869 10.5186 40.2964 10.4805 40.4054C10.4402 40.5205 10.3994 40.6355 10.3604 40.7511C10.3081 40.9059 10.2572 41.0613 10.207 41.217C10.1821 41.2943 10.1572 41.3718 10.1328 41.4494C10.0964 41.5652 10.0617 41.6817 10.0264 41.798C9.98723 41.9271 9.94785 42.0561 9.91016 42.1857C9.87674 42.3006 9.84477 42.416 9.8125 42.5314C9.77469 42.6666 9.73643 42.8018 9.7002 42.9377C9.68089 43.01 9.66338 43.0829 9.64453 43.1554C9.60037 43.3254 9.55534 43.4953 9.51367 43.6662C9.50371 43.7071 9.49517 43.7483 9.48535 43.7892C9.44062 43.9756 9.39624 44.1623 9.35449 44.3498C9.32025 44.5036 9.28905 44.6582 9.25684 44.8127C9.23783 44.9038 9.21751 44.9947 9.19922 45.0861C9.17212 45.2215 9.1476 45.3574 9.12207 45.4933C9.09909 45.6157 9.07444 45.7378 9.05273 45.8605C9.03333 45.9703 9.01643 46.0805 8.99805 46.1906C8.97454 46.3314 8.95054 46.4722 8.92871 46.6135C8.87466 46.9634 8.82682 47.315 8.7832 47.6681C8.76361 47.8267 8.74402 47.9855 8.72656 48.1447C8.63976 48.9362 8.58002 49.7353 8.54688 50.5412C8.52694 51.0258 8.51563 51.5128 8.51562 52.0021C8.51562 53.0492 8.56305 54.0862 8.65234 55.1105C8.71172 55.7916 8.79022 56.4672 8.8877 57.1369C8.9195 57.3554 8.95445 57.573 8.99023 57.7902C9.01558 57.944 9.03909 58.098 9.06641 58.2511C9.07671 58.3089 9.08902 58.3663 9.09961 58.424C9.14132 58.6513 9.18443 58.8779 9.23047 59.1037C9.2535 59.2166 9.27863 59.329 9.30273 59.4416C9.33751 59.6039 9.37121 59.7664 9.4082 59.9279C9.44239 60.0772 9.47956 60.2256 9.51562 60.3742C9.55021 60.5166 9.58382 60.6592 9.62012 60.801C9.64755 60.9081 9.67764 61.0145 9.70605 61.1213C9.75232 61.2951 9.79784 61.469 9.84668 61.6418C9.87272 61.7339 9.90097 61.8253 9.92773 61.9172C9.97946 62.0946 10.0305 62.2721 10.085 62.4484C10.1223 62.5693 10.1616 62.6894 10.2002 62.8097C10.2516 62.9702 10.3028 63.1307 10.3564 63.2902C10.3913 63.3938 10.4281 63.4966 10.4639 63.5998C10.5192 63.7593 10.5743 63.9188 10.6318 64.0773C10.6866 64.2283 10.743 64.3785 10.7998 64.5285C10.8446 64.6469 10.8895 64.7652 10.9355 64.883C10.9873 65.0153 11.0405 65.1469 11.0938 65.2785C11.1527 65.424 11.2117 65.5695 11.2725 65.714C11.3132 65.8108 11.3559 65.9067 11.3975 66.0031C11.4704 66.1723 11.5437 66.3411 11.6191 66.509C11.6674 66.6163 11.7163 66.7234 11.7656 66.8302C11.832 66.9739 11.8986 67.1173 11.9668 67.2599C12.0291 67.3902 12.0934 67.5193 12.1572 67.6486C12.2199 67.7756 12.2826 67.9024 12.3467 68.0285C12.4057 68.1446 12.4661 68.2598 12.5264 68.3752C12.599 68.5142 12.6717 68.6532 12.7461 68.7912C12.8003 68.8916 12.856 68.9911 12.9111 69.091C12.9907 69.2352 13.0698 69.3796 13.1514 69.5226C13.2277 69.6565 13.3058 69.7893 13.3838 69.922C13.4428 70.0225 13.5016 70.123 13.5615 70.2228C13.6504 70.3708 13.741 70.5177 13.832 70.6642C13.8961 70.7674 13.9603 70.8704 14.0254 70.9728C14.0991 71.0889 14.174 71.2043 14.249 71.3195C14.3327 71.4479 14.4167 71.576 14.502 71.7033C14.569 71.8034 14.637 71.9028 14.7051 72.0021C14.7898 72.1259 14.8746 72.2496 14.9609 72.3722C15.0549 72.5058 15.1503 72.6384 15.2461 72.7707C15.3124 72.8622 15.3792 72.9533 15.4463 73.0441C15.5479 73.1816 15.6504 73.3183 15.7539 73.4543C15.8235 73.5457 15.8934 73.637 15.9639 73.7277C16.0554 73.8456 16.1482 73.9626 16.2412 74.0793C16.3331 74.1946 16.4252 74.3098 16.5186 74.424C16.598 74.5212 16.6783 74.6177 16.7588 74.714C16.8678 74.8445 16.9771 74.9748 17.0879 75.1037C17.1481 75.1737 17.2088 75.2431 17.2695 75.3127C17.3932 75.4542 17.5177 75.595 17.6436 75.7345C17.7161 75.815 17.7891 75.895 17.8623 75.9748C17.9657 76.0875 18.0699 76.1994 18.1748 76.3107C18.2714 76.4133 18.369 76.515 18.4668 76.6164C18.5643 76.7175 18.6621 76.8182 18.7607 76.9181C18.8672 77.0259 18.9743 77.133 19.082 77.2394C19.1746 77.3308 19.2678 77.4215 19.3613 77.5119C19.4658 77.6128 19.571 77.713 19.6768 77.8127C19.7781 77.9083 19.8799 78.0034 19.9824 78.0978C20.0916 78.1984 20.2011 78.2985 20.3115 78.3976C20.4057 78.4822 20.5006 78.566 20.5957 78.6496C20.7059 78.7465 20.8163 78.8431 20.9277 78.9386C21.0417 79.0364 21.1563 79.1333 21.2715 79.2297C21.3706 79.3126 21.4702 79.3949 21.5703 79.4767C21.6836 79.5694 21.7977 79.6609 21.9121 79.7521C22.0217 79.8395 22.1315 79.9267 22.2422 80.0129C22.3523 80.0986 22.4631 80.1833 22.5742 80.2677C22.6878 80.3541 22.8013 80.4406 22.916 80.5256C23.0261 80.6071 23.137 80.6874 23.248 80.7677C23.3637 80.8514 23.4799 80.9344 23.5967 81.0168C23.7172 81.1018 23.8383 81.1861 23.96 81.2697C24.0696 81.345 24.1795 81.4202 24.29 81.4943C24.4265 81.5858 24.5644 81.6752 24.7021 81.7648C24.798 81.8272 24.8937 81.8899 24.9902 81.9513C25.1185 82.033 25.2476 82.1134 25.377 82.1935C25.4993 82.2693 25.6218 82.3448 25.7451 82.4191C25.8495 82.482 25.9545 82.5438 26.0596 82.6056C26.2049 82.6911 26.3505 82.7761 26.4971 82.8595C26.5914 82.9133 26.6864 82.9659 26.7812 83.0187C26.9296 83.1014 27.0779 83.1842 27.2275 83.2648C27.3383 83.3245 27.4501 83.3821 27.5615 83.4406C27.7015 83.5141 27.8414 83.5877 27.9824 83.6593C28.0928 83.7154 28.2043 83.7694 28.3154 83.8244C28.4551 83.8935 28.5946 83.9631 28.7354 84.0304C28.8388 84.0799 28.9428 84.1284 29.0469 84.1769C29.2074 84.2518 29.3684 84.326 29.5303 84.3986C29.6612 84.4573 29.793 84.5143 29.9248 84.5715C30.0377 84.6204 30.1502 84.6701 30.2637 84.7179C30.4347 84.79 30.6069 84.8594 30.7793 84.9289C30.8756 84.9677 30.9717 85.0071 31.0684 85.0451C31.2062 85.0992 31.3447 85.1518 31.4834 85.2043C31.6301 85.2598 31.7771 85.3147 31.9248 85.3683C32.0195 85.4027 32.1149 85.4353 32.21 85.4689C32.3779 85.5282 32.5458 85.5879 32.7148 85.6447C32.842 85.6875 32.9699 85.7283 33.0977 85.7697C33.2429 85.8167 33.3881 85.8642 33.5342 85.9093C33.6804 85.9546 33.8276 85.9968 33.9746 86.0402C34.1008 86.0774 34.2267 86.1157 34.3535 86.1515C34.5425 86.205 34.7326 86.2555 34.9229 86.3058C35.0053 86.3276 35.0873 86.351 35.1699 86.3722C35.3554 86.4199 35.5419 86.4642 35.7285 86.509C35.8349 86.5345 35.9411 86.5616 36.0479 86.5861C36.1614 86.6122 36.2757 86.6353 36.3896 86.6603C36.5709 86.7001 36.7523 86.7405 36.9346 86.7775C36.969 86.7845 37.0036 86.7911 37.0381 86.798C37.5752 86.9053 38.1166 87.0006 38.6621 87.0832C38.7053 87.0897 38.7487 87.0953 38.792 87.1017C39.0341 87.1375 39.2768 87.1725 39.5205 87.2033C39.6306 87.2172 39.7412 87.2275 39.8516 87.2404C40.0374 87.2621 40.2234 87.285 40.4102 87.3039C40.4745 87.3104 40.5391 87.3143 40.6035 87.3205C40.8328 87.3423 41.0625 87.3645 41.293 87.382C41.3378 87.3854 41.3828 87.3876 41.4277 87.3908C41.9762 87.4302 42.528 87.4587 43.083 87.4728L43.998 87.4845C45.0456 87.4845 46.0823 87.4381 47.1064 87.3488C47.233 87.3378 47.3592 87.325 47.4854 87.3127C47.6226 87.2992 47.7597 87.2867 47.8965 87.2717C47.9744 87.2631 48.0521 87.2524 48.1299 87.2433C48.3083 87.2225 48.4865 87.2014 48.6641 87.1779C48.7198 87.1705 48.7754 87.1621 48.8311 87.1545C49.2798 87.093 49.7258 87.0236 50.1689 86.9455C50.3096 86.9207 50.4498 86.8948 50.5898 86.8683C50.6909 86.8493 50.7919 86.8307 50.8926 86.8107C51.0535 86.7789 51.2139 86.7451 51.374 86.7111C51.461 86.6926 51.548 86.6746 51.6348 86.6554C51.8102 86.6168 51.9848 86.5756 52.1592 86.5343C52.2243 86.5189 52.2895 86.5042 52.3545 86.4884C52.5214 86.4479 52.6876 86.4053 52.8535 86.3625C52.9363 86.3411 53.019 86.32 53.1016 86.298C53.2299 86.2639 53.3576 86.2281 53.4854 86.1926C53.6092 86.1581 53.7331 86.1239 53.8564 86.0881C53.9426 86.063 54.0283 86.0366 54.1143 86.0109C54.2742 85.9632 54.4338 85.9153 54.5928 85.8654C54.6646 85.8428 54.736 85.8191 54.8076 85.7961C54.973 85.7429 55.1384 85.6904 55.3027 85.6349C55.3975 85.6029 55.4915 85.5691 55.5859 85.5363C55.7141 85.4918 55.8422 85.4475 55.9697 85.4015C56.1091 85.3513 56.2481 85.3002 56.3867 85.2482C56.4803 85.2131 56.5737 85.1776 56.667 85.1418C56.7915 85.0939 56.9153 85.0445 57.0391 84.9953C57.1548 84.9493 57.2706 84.9038 57.3857 84.8566C57.4958 84.8115 57.6053 84.7651 57.7148 84.7189C57.8241 84.6728 57.9333 84.6265 58.042 84.5793C58.1505 84.5322 58.2583 84.4838 58.3662 84.4357C58.4902 84.3804 58.6141 84.3254 58.7373 84.2687C58.8458 84.2188 58.9536 84.1674 59.0615 84.1164C59.1698 84.0652 59.2781 84.0143 59.3857 83.9621C59.4984 83.9074 59.6106 83.8519 59.7227 83.7961C59.8314 83.7419 59.9398 83.6872 60.0479 83.632C60.1673 83.571 60.2866 83.5098 60.4053 83.4474C60.502 83.3966 60.5982 83.3448 60.6943 83.2931C60.8208 83.2252 60.9468 83.1565 61.0723 83.0871C61.1623 83.0373 61.2522 82.9873 61.3418 82.9367C61.4467 82.8774 61.551 82.8173 61.6553 82.757C61.7752 82.6877 61.8947 82.6177 62.0137 82.547C62.095 82.4987 62.1759 82.4495 62.2568 82.4006C62.3833 82.3241 62.5094 82.2471 62.6348 82.1691C62.7242 82.1135 62.8134 82.0576 62.9023 82.0011C63.0196 81.9268 63.1367 81.8523 63.2529 81.7765C63.3487 81.7142 63.444 81.6513 63.5391 81.5881C63.6482 81.5154 63.7569 81.4421 63.8652 81.3683C63.948 81.3119 64.03 81.2545 64.1123 81.1974C64.2343 81.1128 64.3557 81.0277 64.4766 80.9416C64.5628 80.8801 64.6487 80.8182 64.7344 80.756C64.8284 80.6877 64.9223 80.6192 65.0156 80.55C65.1318 80.4639 65.2472 80.3767 65.3623 80.2892C65.4521 80.2209 65.5417 80.1523 65.6309 80.0832C65.7122 80.0201 65.7932 79.9565 65.874 79.8927C65.9877 79.803 66.1013 79.7133 66.2139 79.6222C66.3043 79.549 66.3946 79.4756 66.4844 79.4015C66.5783 79.324 66.6715 79.2456 66.7646 79.1672C66.8491 79.096 66.9329 79.0242 67.0166 78.9523C67.1292 78.8556 67.2412 78.7584 67.3525 78.6603C67.42 78.6009 67.4876 78.5416 67.5547 78.4816C67.6681 78.3802 67.7805 78.2778 67.8926 78.175C67.9686 78.1052 68.0447 78.0354 68.1201 77.965C68.2226 77.8693 68.3244 77.7729 68.4258 77.6759C68.4942 77.6106 68.562 77.5446 68.6299 77.4787C68.7437 77.3682 68.8574 77.2577 68.9697 77.1457C69.0409 77.0746 69.112 77.0034 69.1826 76.9318C69.2705 76.8426 69.3574 76.7524 69.4443 76.6623C69.5268 76.5768 69.6097 76.4917 69.6914 76.4054C69.768 76.3245 69.8431 76.242 69.9189 76.1603C70.0154 76.0565 70.1118 75.9528 70.207 75.8478C70.2699 75.7785 70.3322 75.7087 70.3945 75.6388C70.4913 75.5305 70.5882 75.4222 70.6836 75.3127C70.7668 75.2171 70.8484 75.1201 70.9307 75.0236C70.9963 74.9466 71.062 74.8697 71.127 74.7922C71.2117 74.691 71.2962 74.5896 71.3799 74.4875C71.4614 74.3879 71.5426 74.2881 71.623 74.1877C71.7007 74.0908 71.7778 73.9934 71.8545 73.8957C71.9191 73.8134 71.983 73.7305 72.0469 73.6476C72.1444 73.521 72.2411 73.3937 72.3369 73.2658C72.3873 73.1986 72.4374 73.1312 72.4873 73.0636C72.5885 72.9266 72.6889 72.7891 72.7881 72.6506C72.8325 72.5885 72.8768 72.5264 72.9209 72.464C73.0105 72.3372 73.0985 72.2093 73.1865 72.0812C73.232 72.0151 73.2782 71.9494 73.3232 71.883C73.4079 71.758 73.4911 71.6321 73.5742 71.506C73.6301 71.4212 73.686 71.3364 73.7412 71.2511C73.8433 71.0934 73.9443 70.935 74.0439 70.7756C74.0695 70.7346 74.0947 70.6935 74.1201 70.6525C74.1965 70.5291 74.2717 70.4049 74.3467 70.2804C74.4108 70.174 74.476 70.0683 74.5391 69.9611C74.5941 69.8676 74.647 69.7729 74.7012 69.6789C74.7626 69.5723 74.8244 69.4659 74.8848 69.3586C74.9474 69.2471 75.0088 69.1348 75.0703 69.0226C75.1305 68.9128 75.1909 68.8031 75.25 68.6926C75.3008 68.5975 75.3505 68.5019 75.4004 68.4064C75.4654 68.2821 75.5302 68.1576 75.5938 68.0324C75.6411 67.9391 75.6868 67.8449 75.7334 67.7511C75.7906 67.6361 75.8483 67.5212 75.9043 67.4054C75.9873 67.2338 76.0682 67.061 76.1484 66.8879C76.1724 66.8361 76.1969 66.7845 76.2207 66.7326C76.2882 66.5851 76.3544 66.4368 76.4199 66.2883C76.4558 66.2069 76.4921 66.1258 76.5273 66.0441C76.5964 65.8843 76.6637 65.7237 76.7305 65.5627C76.7571 65.4985 76.7843 65.4346 76.8105 65.3703C76.8841 65.1901 76.9557 65.009 77.0264 64.8273C77.047 64.7743 77.0675 64.7213 77.0879 64.6681C77.2521 64.2397 77.4087 63.8074 77.5566 63.3713C77.5809 63.2997 77.6051 63.2282 77.6289 63.1564C77.7565 62.7723 77.8765 62.385 77.9912 61.9953C78.0196 61.8987 78.0485 61.8022 78.0762 61.7052C78.2007 61.2685 78.3177 60.8283 78.4258 60.3849L78.5977 59.6437C78.61 59.5878 78.6211 59.5322 78.6299 59.4767C78.8497 58.0946 77.9871 56.8501 76.7178 56.4201C76.6163 56.3857 76.5125 56.3558 76.4062 56.3322C76.2997 56.3085 76.1908 56.2907 76.0801 56.2785C75.9696 56.2663 75.8571 56.2599 75.7432 56.2599H42.7812C41.2464 56.2599 39.978 55.1233 39.7705 53.6457C39.758 53.5567 39.7488 53.4664 39.7441 53.3752L39.7402 53.2189V20.257C39.7402 20.0861 39.7262 19.9187 39.6992 19.756C39.6902 19.7018 39.6798 19.6481 39.668 19.5949C39.6443 19.4884 39.6155 19.384 39.5811 19.2824C39.5466 19.1807 39.5065 19.0817 39.4619 18.9855C39.3953 18.8418 39.3178 18.7047 39.2305 18.5754C39.1722 18.4891 39.1095 18.4063 39.043 18.3273C38.9325 18.1963 38.8105 18.0764 38.6797 17.9679Z" fill="currentColor"></path>
    <path d="M59.4072 0.0079841C74.324 1.12921 86.9037 10.4333 92.6924 23.4611C92.9544 24.0508 93.2037 24.6476 93.4375 25.2521C94.7076 28.5368 95.5553 32.0344 95.9131 35.6789C95.9429 35.9826 95.9692 36.2873 95.9922 36.5929L95.999 36.7492C96.0028 36.935 95.9865 37.1165 95.9551 37.2922C95.9373 37.3913 95.9158 37.4889 95.8877 37.5842C95.8614 37.6731 95.8298 37.7599 95.7949 37.8449C95.3635 38.8983 94.2969 39.634 93.0645 39.634H59.4072L59.251 39.6301C59.0623 39.6205 58.8783 39.5933 58.7002 39.551C57.6707 39.3058 56.8464 38.5373 56.5195 37.5422C56.4369 37.2906 56.3841 37.025 56.3701 36.7492L56.3662 36.5929V2.93572C56.3662 2.77841 56.3783 2.62379 56.4014 2.47283C56.4091 2.42231 56.4175 2.3721 56.4277 2.32244C56.448 2.22356 56.4733 2.12646 56.5029 2.03142C56.5623 1.84096 56.6405 1.65904 56.7344 1.48748C56.8282 1.31589 56.9383 1.15502 57.0625 1.00701C57.2487 0.785224 57.4663 0.592435 57.709 0.436695C57.831 0.35837 57.9591 0.289283 58.0928 0.23064C58.491 0.0559634 58.937 -0.0273487 59.4072 0.0079841Z" fill="currentColor"></path>
  </symbol>
  <symbol fill="currentColor" xmlns="http://www.w3.org/2000/svg" viewBox="0 0 78 98" id="safety">
    <path d="M38.748 60C40.819 60 42.4978 61.6791 42.498 63.75V68.75C42.498 70.8211 40.8192 72.5 38.748 72.5C36.6769 72.5 34.998 70.8211 34.998 68.75V63.75C34.9983 61.6791 36.6771 60 38.748 60Z" fill="currentColor"></path>
    <path fill-rule="evenodd" clip-rule="evenodd" d="M38.75 0C51.8666 0 62.5 10.6333 62.5 23.75V38.75C62.5 38.95 62.4979 39.1494 62.4932 39.3477L62.4688 40.3418L63.4316 40.5889C71.5224 42.6679 77.5 50.0124 77.5 58.75V78.75C77.5 89.1051 69.1051 97.5 58.75 97.5H18.75C8.39466 97.5 0 89.1051 0 78.75V58.75C0 50.0125 5.97764 42.668 14.0684 40.5889L15.0322 40.3408L15.0078 39.3467C15.0029 39.1486 15 38.9495 15 38.75V23.75C15 10.6333 25.6333 0 38.75 0ZM18.75 47.5C12.5368 47.5 7.5 52.5366 7.5 58.75V78.75C7.5 84.9634 12.5368 90 18.75 90H58.75C64.9634 90 70 84.9634 70 78.75V58.75C70 52.5366 64.9634 47.5 58.75 47.5H18.75ZM38.75 7.5C29.7751 7.5 22.5 14.7754 22.5 23.75V40H55V23.75C55 14.7754 47.7249 7.5 38.75 7.5Z" fill="currentColor"></path>
  </symbol>
  <symbol fill="currentColor" xmlns="http://www.w3.org/2000/svg" viewBox="0 0 100 102" id="union">
    <path fill-rule="evenodd" clip-rule="evenodd" d="M43.9082 17.5289C45.9152 17.6302 47.5424 19.274 47.543 21.3229C47.5427 23.4363 45.8144 25.1211 43.7129 25.1217H18.499C15.5216 25.122 12.8116 26.3258 10.8428 28.2701C8.87461 30.2143 7.66309 32.8839 7.66309 35.8102V83.1188C7.66321 86.045 8.87452 88.7147 10.8428 90.6588C12.8116 92.6029 15.5218 93.806 18.499 93.8063H78.4229C81.4005 93.8062 84.1111 92.6032 86.0801 90.6588C88.0484 88.7147 89.2587 86.0451 89.2588 83.1188V55.9391L89.2568 55.609V55.6031C89.2571 53.4952 90.9831 51.8043 93.0869 51.8043C95.1889 51.8043 96.9167 53.4894 96.917 55.6031V83.1168C96.9165 88.153 94.8275 92.728 91.4873 96.0358L91.4883 96.0367L91.4834 96.0416C88.1329 99.3456 83.5091 101.4 78.4229 101.4H18.499C13.4129 101.4 8.78514 99.3416 5.43848 96.0416C2.08768 92.7325 0.000473696 88.1572 0 83.1168V35.8053C0.000160396 30.7671 2.09197 26.1922 5.4375 22.8834C8.7846 19.5783 13.4135 17.5243 18.499 17.524H43.7129L43.9082 17.5289Z" fill="currentColor"></path>
    <path fill-rule="evenodd" clip-rule="evenodd" d="M73.8486 1.73204C74.8463 0.201215 76.7867 -0.388045 78.4561 0.260362L78.6221 0.329698L78.6377 0.336534L78.6523 0.34337L78.9375 0.486924L78.9541 0.494737L78.9697 0.504503L97.4844 11.0592L97.4854 11.0602C99.2562 12.0724 99.9068 14.2873 98.9785 16.0817L98.8838 16.2545L71.1582 63.6793C70.9516 63.9966 70.8174 64.1629 70.5557 64.2971C70.2939 64.4313 69.7881 64.5465 69.7881 64.5465L55.0146 67.9859L54.8857 68.0172L54.7578 68.0475L54.7295 68.0426C54.5101 68.086 54.2666 68.1207 54.0049 68.1207H21.9453C19.8434 68.1207 18.1148 66.4355 18.1143 64.3219C18.1148 62.2085 19.8432 60.5221 21.9453 60.5221H48.8545L46.1191 51.527L46.1133 51.5084L46.1084 51.4889L46.0264 51.152L46.0215 51.1324L46.0186 51.1139C45.8409 50.1565 46.049 49.2037 46.5342 48.4293L67.5654 12.4635L67.6133 12.3795L67.6357 12.3404L67.6436 12.3297L73.752 1.88829L73.8486 1.73204ZM53.9238 50.9108L56.6328 59.8102L65.8135 57.6695L84.1455 26.3063L72.2686 19.5318L53.9238 50.9108ZM76.1074 12.9664L87.9844 19.7408L90.3242 15.7389L78.4473 8.96446L76.1074 12.9664Z" fill="currentColor"></path>
  </symbol>
</svg>
